name C:\Users\u0101727\Documents\MyRepositories\upper-imu-dc\Results\main_tracking\Case_43\kinematics.mot
datacolumns 10
datarows 18
range 3.50000000 3.67000000
endheader 
time	clav_prot	clav_elev	scapula_abduction	scapula_elevation	scapula_upward_rot	scapula_winging	plane_elv	shoulder_elv	axial_rot	
          3.50000000	        -44.48123286	          9.01046928	          0.84496870	         -1.64472751	         84.28622212	        -11.80513244	         37.63655343	         87.71090072	         -7.36737875	
          3.51000000	        -44.48400527	          9.01242904	          0.83352353	         -1.64466865	         84.27805283	        -11.80890458	         37.66715527	         87.68366806	         -7.32577606	
          3.52000000	        -44.48607332	          9.01387053	          0.82287923	         -1.64498729	         84.26919426	        -11.81220861	         37.69689501	         87.65592876	         -7.28471487	
          3.53000000	        -44.48744728	          9.01475813	          0.81303451	         -1.64570712	         84.25965651	        -11.81504012	         37.72559621	         87.62770185	         -7.24423580	
          3.54000000	        -44.48813190	          9.01506357	          0.80399508	         -1.64684647	         84.24944880	        -11.81739315	         37.75312307	         87.59901241	         -7.20437129	
          3.55000000	        -44.48812643	          9.01476800	          0.79577269	         -1.64841696	         84.23857900	        -11.81926078	         37.77938243	         87.56989103	         -7.16514915	
          3.56000000	        -44.48742452	          9.01386385	          0.78838411	         -1.65042238	         84.22705263	        -11.82063574	         37.80432456	         87.54037277	         -7.12659927	
          3.57000000	        -44.48601378	          9.01235613	          0.78185039	         -1.65285792	         84.21487140	        -11.82151073	         37.82794271	         87.51049566	         -7.08876282	
          3.58000000	        -44.48387490	          9.01026336	          0.77619667	         -1.65570974	         84.20203117	        -11.82187842	         37.85027149	         87.48029862	         -7.05170255	
          3.59000000	        -44.48098022	          9.00761774	          0.77145266	         -1.65895502	         84.18851958	        -11.82173103	         37.87138437	         87.44981903	         -7.01551273	
          3.60000000	        -44.47729203	          9.00446473	          0.76765362	         -1.66256247	         84.17431336	        -11.82105956	         37.89139095	         87.41909005	         -6.98032743	
          3.61000000	        -44.47276095	          9.00086170	          0.76484139	         -1.66649335	         84.15937559	        -11.81985298	         37.91043446	         87.38813786	         -6.94632590	
          3.62000000	        -44.46732456	          8.99687611	          0.76306500	         -1.67070304	         84.14365296	        -11.81809729	         37.92869000	         87.35697911	         -6.91373465	
          3.63000000	        -44.46090662	          8.99258328	          0.76238074	         -1.67514271	         84.12707334	        -11.81577497	         37.94636376	         87.32561869	         -6.88282567	
          3.64000000	        -44.45341677	          8.98806408	          0.76285175	         -1.67976111	         84.10954384	        -11.81286451	         37.96369299	         87.29404785	         -6.85391125	
          3.65000000	        -44.44475058	          8.98340251	          0.76454739	         -1.68450636	         84.09094943	        -11.80934017	         37.98094654	         87.26224284	         -6.82733561	
          3.66000000	        -44.43478982	          8.97868344	          0.76754293	         -1.68932762	         84.07115230	        -11.80517162	         37.99842546	         87.23016404	         -6.80346415	
          3.67000000	        -44.42340254	          8.97399021	          0.77191996	         -1.69417664	         84.04999190	        -11.80032350	         38.01646338	         87.19775574	         -6.78267101	
